<mxfile host="app.diagrams.net" modified="2021-02-19T10:54:11.479Z" agent="5.0 (Macintosh; Intel Mac OS X 10_15_3) AppleWebKit/537.36 (KHTML, like Gecko) Chrome/88.0.4324.150 Safari/537.36" etag="QwfmwF9sFPOATZZFISNl" version="14.2.9" type="github">
  <diagram id="_LdlN1PV_-USws7O5DQO" name="Page-1">
    <mxGraphModel dx="946" dy="536" grid="0" gridSize="10" guides="1" tooltips="1" connect="1" arrows="1" fold="1" page="1" pageScale="1" pageWidth="827" pageHeight="1169" math="0" shadow="0">
      <root>
        <mxCell id="0" />
        <mxCell id="1" parent="0" />
        <mxCell id="Ju7V8Uo6JArg5DftUvPo-10" style="edgeStyle=orthogonalEdgeStyle;rounded=0;orthogonalLoop=1;jettySize=auto;html=1;exitX=0.5;exitY=1;exitDx=0;exitDy=0;entryX=0.5;entryY=0;entryDx=0;entryDy=0;" parent="1" source="Ju7V8Uo6JArg5DftUvPo-1" target="Ju7V8Uo6JArg5DftUvPo-2" edge="1">
          <mxGeometry relative="1" as="geometry" />
        </mxCell>
        <mxCell id="Ju7V8Uo6JArg5DftUvPo-1" value="&lt;span style=&quot;font-family: &amp;#34;source code pro&amp;#34; , &amp;#34;dejavu sans mono&amp;#34; , &amp;#34;ubuntu mono&amp;#34; , &amp;#34;anonymous pro&amp;#34; , &amp;#34;droid sans mono&amp;#34; , &amp;#34;menlo&amp;#34; , &amp;#34;monaco&amp;#34; , &amp;#34;consolas&amp;#34; , &amp;#34;inconsolata&amp;#34; , &amp;#34;courier&amp;#34; , monospace , &amp;#34;pingfang sc&amp;#34; , &amp;#34;microsoft yahei&amp;#34; , sans-serif ; font-size: 17px&quot;&gt;&lt;span style=&quot;background-color: rgb(255 , 255 , 255)&quot;&gt;获取到一帧图像&lt;/span&gt;&lt;br style=&quot;font-size: 17px&quot;&gt;&lt;/span&gt;" style="rounded=1;whiteSpace=wrap;html=1;fontSize=17;glass=0;strokeWidth=1;shadow=0;" parent="1" vertex="1">
          <mxGeometry x="200" y="90" width="160" height="30" as="geometry" />
        </mxCell>
        <mxCell id="Ju7V8Uo6JArg5DftUvPo-11" style="edgeStyle=orthogonalEdgeStyle;rounded=0;orthogonalLoop=1;jettySize=auto;html=1;exitX=0.5;exitY=1;exitDx=0;exitDy=0;entryX=0.5;entryY=0;entryDx=0;entryDy=0;" parent="1" source="Ju7V8Uo6JArg5DftUvPo-2" target="Ju7V8Uo6JArg5DftUvPo-4" edge="1">
          <mxGeometry relative="1" as="geometry" />
        </mxCell>
        <mxCell id="Ju7V8Uo6JArg5DftUvPo-2" value="&lt;span style=&quot;color: rgba(0 , 0 , 0 , 0.75) ; font-family: &amp;#34;microsoft yahei&amp;#34; , &amp;#34;sf pro display&amp;#34; , &amp;#34;roboto&amp;#34; , &amp;#34;noto&amp;#34; , &amp;#34;arial&amp;#34; , &amp;#34;pingfang sc&amp;#34; , sans-serif ; text-align: left ; background-color: rgb(255 , 255 , 255)&quot;&gt;&lt;font style=&quot;font-size: 15px&quot;&gt;寻找定位符、校正符&lt;/font&gt;&lt;/span&gt;&lt;span style=&quot;font-family: &amp;#34;source code pro&amp;#34; , &amp;#34;dejavu sans mono&amp;#34; , &amp;#34;ubuntu mono&amp;#34; , &amp;#34;anonymous pro&amp;#34; , &amp;#34;droid sans mono&amp;#34; , &amp;#34;menlo&amp;#34; , &amp;#34;monaco&amp;#34; , &amp;#34;consolas&amp;#34; , &amp;#34;inconsolata&amp;#34; , &amp;#34;courier&amp;#34; , monospace , &amp;#34;pingfang sc&amp;#34; , &amp;#34;microsoft yahei&amp;#34; , sans-serif ; font-size: 14px ; background-color: rgb(249 , 242 , 244)&quot;&gt;&lt;br&gt;&lt;/span&gt;" style="rounded=1;whiteSpace=wrap;html=1;fontSize=12;glass=0;strokeWidth=1;shadow=0;" parent="1" vertex="1">
          <mxGeometry x="200" y="150" width="160" height="30" as="geometry" />
        </mxCell>
        <mxCell id="Ju7V8Uo6JArg5DftUvPo-12" style="edgeStyle=orthogonalEdgeStyle;rounded=0;orthogonalLoop=1;jettySize=auto;html=1;exitX=0.5;exitY=1;exitDx=0;exitDy=0;entryX=0.5;entryY=0;entryDx=0;entryDy=0;fontSize=14;" parent="1" source="Ju7V8Uo6JArg5DftUvPo-4" target="Ju7V8Uo6JArg5DftUvPo-7" edge="1">
          <mxGeometry relative="1" as="geometry">
            <mxPoint x="280" y="290" as="targetPoint" />
          </mxGeometry>
        </mxCell>
        <mxCell id="Ju7V8Uo6JArg5DftUvPo-16" value="是" style="edgeLabel;html=1;align=center;verticalAlign=middle;resizable=0;points=[];" parent="Ju7V8Uo6JArg5DftUvPo-12" vertex="1" connectable="0">
          <mxGeometry x="-0.3571" y="-2" relative="1" as="geometry">
            <mxPoint as="offset" />
          </mxGeometry>
        </mxCell>
        <mxCell id="Ju7V8Uo6JArg5DftUvPo-23" value="否" style="edgeStyle=orthogonalEdgeStyle;rounded=0;orthogonalLoop=1;jettySize=auto;html=1;exitX=0;exitY=0.5;exitDx=0;exitDy=0;entryX=0;entryY=0.5;entryDx=0;entryDy=0;fontSize=16;" parent="1" source="Ju7V8Uo6JArg5DftUvPo-4" target="Ju7V8Uo6JArg5DftUvPo-1" edge="1">
          <mxGeometry relative="1" as="geometry">
            <Array as="points">
              <mxPoint x="160" y="235" />
              <mxPoint x="160" y="105" />
            </Array>
          </mxGeometry>
        </mxCell>
        <mxCell id="Ju7V8Uo6JArg5DftUvPo-4" value="是否存在" style="rhombus;whiteSpace=wrap;html=1;fontSize=14;" parent="1" vertex="1">
          <mxGeometry x="240" y="200" width="80" height="70" as="geometry" />
        </mxCell>
        <mxCell id="Ju7V8Uo6JArg5DftUvPo-13" style="edgeStyle=orthogonalEdgeStyle;rounded=0;orthogonalLoop=1;jettySize=auto;html=1;exitX=0.5;exitY=1;exitDx=0;exitDy=0;entryX=0.5;entryY=0;entryDx=0;entryDy=0;" parent="1" source="Ju7V8Uo6JArg5DftUvPo-7" target="Ju7V8Uo6JArg5DftUvPo-9" edge="1">
          <mxGeometry relative="1" as="geometry" />
        </mxCell>
        <mxCell id="Ju7V8Uo6JArg5DftUvPo-7" value="&lt;span style=&quot;color: rgba(0, 0, 0, 0.75); font-family: &amp;quot;microsoft yahei&amp;quot;, &amp;quot;sf pro display&amp;quot;, roboto, noto, arial, &amp;quot;pingfang sc&amp;quot;, sans-serif; text-align: left; background-color: rgb(255, 255, 255); font-size: 16px;&quot;&gt;&lt;font style=&quot;font-size: 16px;&quot;&gt;根据定位信息&lt;br style=&quot;font-size: 16px;&quot;&gt;计算二维码宽度&lt;/font&gt;&lt;/span&gt;&lt;span style=&quot;font-family: &amp;quot;source code pro&amp;quot;, &amp;quot;dejavu sans mono&amp;quot;, &amp;quot;ubuntu mono&amp;quot;, &amp;quot;anonymous pro&amp;quot;, &amp;quot;droid sans mono&amp;quot;, menlo, monaco, consolas, inconsolata, courier, monospace, &amp;quot;pingfang sc&amp;quot;, &amp;quot;microsoft yahei&amp;quot;, sans-serif; font-size: 16px; background-color: rgb(249, 242, 244);&quot;&gt;&lt;br style=&quot;font-size: 16px;&quot;&gt;&lt;/span&gt;" style="rounded=1;whiteSpace=wrap;html=1;fontSize=16;glass=0;strokeWidth=1;shadow=0;" parent="1" vertex="1">
          <mxGeometry x="190" y="298" width="180" height="43" as="geometry" />
        </mxCell>
        <mxCell id="Ju7V8Uo6JArg5DftUvPo-18" value="否" style="edgeStyle=orthogonalEdgeStyle;rounded=0;orthogonalLoop=1;jettySize=auto;html=1;exitX=0.5;exitY=1;exitDx=0;exitDy=0;entryX=0.5;entryY=0;entryDx=0;entryDy=0;fontSize=13;" parent="1" source="Ju7V8Uo6JArg5DftUvPo-9" target="Ju7V8Uo6JArg5DftUvPo-14" edge="1">
          <mxGeometry relative="1" as="geometry" />
        </mxCell>
        <mxCell id="Ju7V8Uo6JArg5DftUvPo-20" value="是" style="edgeStyle=orthogonalEdgeStyle;rounded=0;orthogonalLoop=1;jettySize=auto;html=1;exitX=1;exitY=0.5;exitDx=0;exitDy=0;entryX=0;entryY=0.5;entryDx=0;entryDy=0;" parent="1" source="Ju7V8Uo6JArg5DftUvPo-9" target="Ju7V8Uo6JArg5DftUvPo-19" edge="1">
          <mxGeometry relative="1" as="geometry" />
        </mxCell>
        <mxCell id="Ju7V8Uo6JArg5DftUvPo-9" value="&lt;span style=&quot;color: rgba(0, 0, 0, 0.75); font-family: &amp;quot;microsoft yahei&amp;quot;, &amp;quot;sf pro display&amp;quot;, roboto, noto, arial, &amp;quot;pingfang sc&amp;quot;, sans-serif; text-align: left; background-color: rgb(255, 255, 255); font-size: 15px;&quot;&gt;&lt;font style=&quot;font-size: 15px;&quot;&gt;二维码宽度/扫码框&lt;br style=&quot;font-size: 15px;&quot;&gt;宽度是否小于1/8&lt;/font&gt;&lt;/span&gt;" style="rhombus;whiteSpace=wrap;html=1;fontSize=15;" parent="1" vertex="1">
          <mxGeometry x="192.5" y="365" width="175" height="110" as="geometry" />
        </mxCell>
        <mxCell id="Ju7V8Uo6JArg5DftUvPo-14" value="&lt;span style=&quot;font-family: &amp;quot;source code pro&amp;quot;, &amp;quot;dejavu sans mono&amp;quot;, &amp;quot;ubuntu mono&amp;quot;, &amp;quot;anonymous pro&amp;quot;, &amp;quot;droid sans mono&amp;quot;, menlo, monaco, consolas, inconsolata, courier, monospace, &amp;quot;pingfang sc&amp;quot;, &amp;quot;microsoft yahei&amp;quot;, sans-serif; font-size: 21px; background-color: rgb(249, 242, 244);&quot;&gt;解码&lt;br style=&quot;font-size: 21px;&quot;&gt;&lt;/span&gt;" style="rounded=1;whiteSpace=wrap;html=1;fontSize=21;glass=0;strokeWidth=1;shadow=0;" parent="1" vertex="1">
          <mxGeometry x="200" y="512" width="160" height="30" as="geometry" />
        </mxCell>
        <mxCell id="Ju7V8Uo6JArg5DftUvPo-21" style="edgeStyle=orthogonalEdgeStyle;rounded=0;orthogonalLoop=1;jettySize=auto;html=1;exitX=0.5;exitY=0;exitDx=0;exitDy=0;entryX=1;entryY=0.5;entryDx=0;entryDy=0;" parent="1" source="Ju7V8Uo6JArg5DftUvPo-19" target="Ju7V8Uo6JArg5DftUvPo-1" edge="1">
          <mxGeometry relative="1" as="geometry" />
        </mxCell>
        <mxCell id="Ju7V8Uo6JArg5DftUvPo-22" value="重新扫码" style="edgeLabel;html=1;align=center;verticalAlign=middle;resizable=0;points=[];fontSize=17;" parent="Ju7V8Uo6JArg5DftUvPo-21" vertex="1" connectable="0">
          <mxGeometry x="-0.3134" y="4" relative="1" as="geometry">
            <mxPoint as="offset" />
          </mxGeometry>
        </mxCell>
        <mxCell id="Ju7V8Uo6JArg5DftUvPo-19" value="&lt;span style=&quot;font-family: &amp;quot;source code pro&amp;quot;, &amp;quot;dejavu sans mono&amp;quot;, &amp;quot;ubuntu mono&amp;quot;, &amp;quot;anonymous pro&amp;quot;, &amp;quot;droid sans mono&amp;quot;, menlo, monaco, consolas, inconsolata, courier, monospace, &amp;quot;pingfang sc&amp;quot;, &amp;quot;microsoft yahei&amp;quot;, sans-serif; font-size: 19px; background-color: rgb(249, 242, 244);&quot;&gt;设置放大比例&lt;br style=&quot;font-size: 19px;&quot;&gt;&lt;/span&gt;" style="rounded=1;whiteSpace=wrap;html=1;fontSize=19;glass=0;strokeWidth=1;shadow=0;" parent="1" vertex="1">
          <mxGeometry x="414" y="405" width="160" height="30" as="geometry" />
        </mxCell>
      </root>
    </mxGraphModel>
  </diagram>
</mxfile>
